<?xml version="1.0" standalone="no"?>
<!DOCTYPE svg PUBLIC "-//W3C//DTD SVG 20010904//EN"
 "http://www.w3.org/TR/2001/REC-SVG-20010904/DTD/svg10.dtd">
<svg version="1.0" xmlns="http://www.w3.org/2000/svg"
 width="200.000000pt" height="200.000000pt" viewBox="0 0 200.000000 200.000000"
 preserveAspectRatio="xMidYMid meet">

<g transform="translate(0.000000,200.000000) scale(0.100000,-0.100000)"
fill="#000000" stroke="none">
<path d="M406 1073 c-4 -82 -9 -172 -13 -200 l-6 -53 167 0 166 0 0 45 0 45
-100 0 -100 0 0 35 0 35 85 0 c65 0 85 3 85 14 0 7 3 28 6 45 l7 31 -87 0 -86
0 0 30 0 30 99 0 99 0 4 45 3 45 -161 0 -161 0 -7 -147z"/>
<path d="M806 1068 c-4 -84 -9 -174 -13 -200 l-6 -48 65 0 65 0 7 133 c3 72 9
162 13 200 l6 67 -65 0 -65 0 -7 -152z"/>
<path d="M1006 1130 c-36 -50 -66 -93 -66 -96 0 -2 28 -52 62 -109 l61 -105
74 0 73 0 -70 105 c-38 57 -70 106 -70 109 0 3 28 40 61 83 34 43 66 84 72 91
7 9 -6 12 -60 12 l-70 0 -67 -90z"/>
<path d="M1256 1063 c-4 -87 -10 -178 -13 -202 l-6 -43 150 3 c118 3 154 8
174 21 58 37 63 130 9 169 l-28 22 29 24 c24 20 29 33 29 68 0 27 -7 51 -19
66 -18 23 -25 24 -169 27 l-150 3 -6 -158z m222 48 c5 -30 -12 -41 -65 -41
-43 0 -43 0 -43 36 l0 35 53 -3 c46 -3 52 -6 55 -27z m0 -133 c7 -7 12 -20 12
-29 0 -32 -29 -49 -82 -49 -47 0 -50 1 -44 23 3 12 6 32 6 45 0 20 5 22 48 22
26 0 53 -5 60 -12z"/>
</g>
</svg>
